<svg viewBox="0 0 1024 1024" xmlns="http://www.w3.org/2000/svg"><path d="M406.1 228.3h-198c-6.8 0-12.4-5.5-12.4-12.4 0-6.8 5.5-12.4 12.4-12.4h198c6.8 0 12.4 5.5 12.4 12.4s-5.6 12.4-12.4 12.4zM406.1 818.9h-198c-6.8 0-12.4-5.5-12.4-12.4 0-6.8 5.5-12.4 12.4-12.4h198c6.8 0 12.4 5.5 12.4 12.4s-5.6 12.4-12.4 12.4z" fill="#13227a" p-id="1249"/><path d="M252.3 216h109.6v590.6H252.3zM809.2 228.3h-198c-6.8 0-12.4-5.5-12.4-12.4 0-6.8 5.5-12.4 12.4-12.4h198c6.8 0 12.4 5.5 12.4 12.4s-5.5 12.4-12.4 12.4zM809.2 818.9h-198c-6.8 0-12.4-5.5-12.4-12.4 0-6.8 5.5-12.4 12.4-12.4h198c6.8 0 12.4 5.5 12.4 12.4s-5.5 12.4-12.4 12.4z" fill="#13227a" p-id="1250"/><path d="M655.4 216H765v590.6H655.4z" fill="#13227a" p-id="1251"/><path d="M327.7 486.5h382.5v42.4H327.7z" fill="#13227a" p-id="1252"/></svg>