<svg viewBox="0 0 1024 1024" xmlns="http://www.w3.org/2000/svg"><path d="M489.8 390.84v326.6A50.56 50.56 0 0 1 439.24 768H186.52a50.56 50.56 0 0 1-50.56-50.56V390.84h353.84z" fill="#CBECF9" p-id="16784"></path><path d="M460.32 390.84v295.76a46.08 46.08 0 0 1-46.08 46.08h-232a46.08 46.08 0 0 1-46.32-46.08V390.84h324.4z" fill="#FFFFFF" p-id="16785"></path><path d="M136 390.84v68.44a78.16 78.16 0 0 0 50.56 18.52h252.72a78.16 78.16 0 0 0 50.56-18.52V390.84z" fill="#CBECF9" p-id="16786"></path><path d="M439.28 776H186.56A58.6 58.6 0 0 1 128 717.44V390.84a8 8 0 0 1 8-8h353.84a8 8 0 0 1 8 8v326.6A58.6 58.6 0 0 1 439.28 776zM144 398.84v318.6A42.6 42.6 0 0 0 186.56 760h252.72a42.6 42.6 0 0 0 42.56-42.56V398.84z" fill="#2FB1EA" p-id="16787"></path><path d="M136 96l353.84 0 0 353.84-353.84 0 0-353.84Z" fill="#6DD0FC" p-id="16788"></path><path d="M136 96l321.32 0 0 326.88-321.32 0 0-326.88Z" fill="#A4ECFF" p-id="16789"></path><path d="M439.28 457.84H186.56A58.6 58.6 0 0 1 128 399.28V146.56A58.6 58.6 0 0 1 186.56 88h252.72a58.6 58.6 0 0 1 58.56 58.56v252.72a58.6 58.6 0 0 1-58.56 58.56zM186.56 104A42.6 42.6 0 0 0 144 146.56v252.72a42.6 42.6 0 0 0 42.56 42.56h252.72a42.6 42.6 0 0 0 42.56-42.56V146.56A42.6 42.6 0 0 0 439.28 104z" fill="#2FB1EA" p-id="16790"></path><path d="M430.88 132.44v258.4h-258.4v-258.4z" fill="#6DD0FC" p-id="16791"></path><path d="M430.88 154.96v235.88H195V154.96z" fill="#FFC444" p-id="16792"></path><path d="M430.84 182.52v208.32H226.16V182.52z" fill="#FFE76E" p-id="16793"></path><path d="M430.84 398.84h-236a8 8 0 0 1-8-8v-236a8 8 0 0 1 8-8h236a8 8 0 0 1 8 8v236a8 8 0 0 1-8 8z m-228-16h220v-220h-220z" fill="#2FB1EA" p-id="16794"></path><path d="M186.92 494.2l53.04 0 0 53.04-53.04 0 0-53.04Z" fill="#FF8888" p-id="16795"></path><path d="M286.4 494.2l53.04 0 0 53.04-53.04 0 0-53.04Z" fill="#FF8888" p-id="16796"></path><path d="M385.88 494.2l53.04 0 0 53.04-53.04 0 0-53.04Z" fill="#FF8888" p-id="16797"></path><path d="M186.92 580.28l53.04 0 0 53.04-53.04 0 0-53.04Z" fill="#FF8888" p-id="16798"></path><path d="M286.4 580.28l53.04 0 0 53.04-53.04 0 0-53.04Z" fill="#FF8888" p-id="16799"></path><path d="M385.88 580.28l53.04 0 0 53.04-53.04 0 0-53.04Z" fill="#FF8888" p-id="16800"></path><path d="M186.92 669.16l53.04 0 0 53.04-53.04 0 0-53.04Z" fill="#FF8888" p-id="16801"></path><path d="M286.4 669.16l53.04 0 0 53.04-53.04 0 0-53.04Z" fill="#FF8888" p-id="16802"></path><path d="M385.88 669.16l53.04 0 0 53.04-53.04 0 0-53.04Z" fill="#7ADAFC" p-id="16803"></path><path d="M489.84 416H624v192h-134.16z" fill="#6DD0FC" p-id="16804"></path><path d="M489.84 416h114.8v192h-114.8z" fill="#A4ECFF" p-id="16805"></path><path d="M510.12 416h74.32v192h-74.32z" fill="#6DD0FC" p-id="16806"></path><path d="M624 616h-134.16a8 8 0 0 1-8-8v-192a8 8 0 0 1 8-8H624a8 8 0 0 1 8 8v192a8 8 0 0 1-8 8z m-126.16-16H616v-176h-118.16z" fill="#2FB1EA" p-id="16807"></path><path d="M529.36 416h55.08v192h-55.08z" fill="#52E355" p-id="16808"></path><path d="M550.8 416h33.68v192h-33.68z" fill="#90FC95" p-id="16809"></path><path d="M584.44 616h-55.08a8 8 0 0 1-8-8v-192a8 8 0 0 1 8-8h55.08a8 8 0 0 1 8 8v192a8 8 0 0 1-8 8z m-47.08-16h39.08v-176h-39.08z" fill="#2FB1EA" p-id="16810"></path><path d="M387.88 620.72H888V928H387.88z" fill="#CBECF9" p-id="16811"></path><path d="M387.88 620.72h463.24v276.24H387.88z" fill="#FFFFFF" p-id="16812"></path><path d="M888 936H388a8 8 0 0 1-8-8v-307.28a8 8 0 0 1 8-8h500a8 8 0 0 1 8 8V928a8 8 0 0 1-8 8z m-492-16h484v-291.28H396z" fill="#2FB1EA" p-id="16813"></path><path d="M717.72 820m-37.24 0a37.24 37.24 0 1 0 74.48 0 37.24 37.24 0 1 0-74.48 0Z" fill="#FF8888" p-id="16814"></path><path d="M717.72 865.24A45.24 45.24 0 1 1 762.96 820a45.28 45.28 0 0 1-45.24 45.24z m0-74.48a29.24 29.24 0 1 0 29.24 29.24 29.28 29.28 0 0 0-29.24-29.24z" fill="#2FB1EA" p-id="16815"></path><path d="M751.08 820m-37.24 0a37.24 37.24 0 1 0 74.48 0 37.24 37.24 0 1 0-74.48 0Z" fill="#FF8888" p-id="16816"></path><path d="M751.08 865.24A45.24 45.24 0 1 1 796.32 820a45.28 45.28 0 0 1-45.24 45.24z m0-74.48a29.24 29.24 0 1 0 29.24 29.24 29.28 29.28 0 0 0-29.24-29.24z" fill="#2FB1EA" p-id="16817"></path><path d="M387.88 665.4H888v59.28H387.88z" fill="#6DD0FC" p-id="16818"></path><path d="M387.88 665.4h463.24v59.28H387.88z" fill="#A4ECFF" p-id="16819"></path><path d="M888 732.68H388a8 8 0 0 1-8-8v-59.28a8 8 0 0 1 8-8h500a8 8 0 0 1 8 8v59.28a8 8 0 0 1-8 8z m-492-16h484v-43.28H396z" fill="#2FB1EA" p-id="16820"></path><path d="M277 920m-20 0a20 20 0 1 0 40 0 20 20 0 1 0-40 0Z" fill="#D4FFD4" p-id="16821"></path><path d="M745 356m-16 0a16 16 0 1 0 32 0 16 16 0 1 0-32 0Z" fill="#D4FFD4" p-id="16822"></path><path d="M105 268m-12 0a12 12 0 1 0 24 0 12 12 0 1 0-24 0Z" fill="#D4FFD4" p-id="16823"></path><path d="M149 792m-8 0a8 8 0 1 0 16 0 8 8 0 1 0-16 0Z" fill="#D4FFD4" p-id="16824"></path><path d="M107 898m-4 0a4 4 0 1 0 8 0 4 4 0 1 0-8 0Z" fill="#D4FFD4" p-id="16825"></path><path d="M655 986m-20 0a20 20 0 1 0 40 0 20 20 0 1 0-40 0Z" fill="#FFBDBD" p-id="16826"></path><path d="M315 822m-16 0a16 16 0 1 0 32 0 16 16 0 1 0-32 0Z" fill="#FFBDBD" p-id="16827"></path><path d="M605 240m-12 0a12 12 0 1 0 24 0 12 12 0 1 0-24 0Z" fill="#FFBDBD" p-id="16828"></path><path d="M199 62m-8 0a8 8 0 1 0 16 0 8 8 0 1 0-16 0Z" fill="#FFBDBD" p-id="16829"></path><path d="M583 66m-4 0a4 4 0 1 0 8 0 4 4 0 1 0-8 0Z" fill="#FFBDBD" p-id="16830"></path><path d="M913 556m-20 0a20 20 0 1 0 40 0 20 20 0 1 0-40 0Z" fill="#BBF1FF" p-id="16831"></path><path d="M741 208m-16 0a16 16 0 1 0 32 0 16 16 0 1 0-32 0Z" fill="#BBF1FF" p-id="16832"></path><path d="M105 420m-12 0a12 12 0 1 0 24 0 12 12 0 1 0-24 0Z" fill="#BBF1FF" p-id="16833"></path><path d="M829 300m-8 0a8 8 0 1 0 16 0 8 8 0 1 0-16 0Z" fill="#BBF1FF" p-id="16834"></path><path d="M905 824m-4 0a4 4 0 1 0 8 0 4 4 0 1 0-8 0Z" fill="#BBF1FF" p-id="16835"></path><path d="M815 86m-20 0a20 20 0 1 0 40 0 20 20 0 1 0-40 0Z" fill="#FFF4C5" p-id="16836"></path><path d="M431 34m-16 0a16 16 0 1 0 32 0 16 16 0 1 0-32 0Z" fill="#FFF4C5" p-id="16837"></path><path d="M775 574m-12 0a12 12 0 1 0 24 0 12 12 0 1 0-24 0Z" fill="#FFF4C5" p-id="16838"></path><path d="M685 424m-8 0a8 8 0 1 0 16 0 8 8 0 1 0-16 0Z" fill="#FFF4C5" p-id="16839"></path><path d="M95 622m-4 0a4 4 0 1 0 8 0 4 4 0 1 0-8 0Z" fill="#FFF4C5" p-id="16840"></path></svg>