<svg viewBox="0 0 1024 1024" xmlns="http://www.w3.org/2000/svg"><path d="M524.8 501.333333c0 72.533333-32 104.533333-32 104.533334-2.133333-164.266667-164.266667-339.2-164.266667-339.2C384 375.466667 147.2 512 147.2 708.266667c0 123.733333 151.466667 213.333333 228.266667 198.4 328.533333-66.133333 149.333333-405.333333 149.333333-405.333334z m-164.266667 356.266667s-170.666667-83.2-4.266666-268.8c0 0 83.2 83.2 66.133333 160 0 0 23.466667 2.133333 53.333333-40.533333-2.133333 0 6.4 119.466667-115.2 149.333333z" fill="#3B5999" p-id="20611"></path><path d="M753.066667 106.666667h-140.8C520.533333 106.666667 448 179.2 448 270.933333v140.8c0 12.8 10.666667 23.466667 23.466667 23.466667h281.6c91.733333 0 164.266667-72.533333 164.266666-164.266667C917.333333 179.2 844.8 106.666667 753.066667 106.666667z m-2.133334 74.666666H725.333333c-8.533333 0-14.933333 2.133333-19.2 6.4-2.133333 2.133333-2.133333 8.533333-2.133333 17.066667V234.666667h46.933333l-6.4 46.933333H704v121.6h-49.066667v-121.6h-40.533333V234.666667h40.533333V200.533333c0-19.2 6.4-36.266667 17.066667-46.933333 10.666667-10.666667 25.6-17.066667 44.8-17.066667 14.933333 0 27.733333 0 36.266667 2.133334v42.666666z" fill="#3B5999" p-id="20612"></path></svg>