<svg viewBox="0 0 1024 1024" xmlns="http://www.w3.org/2000/svg"><path d="M369.732202 655.15728H62.571602c-16.254032 0.800002-30.078059-11.744023-30.87806-27.998055a29.332057 29.332057 0 0 1 2.080004-12.400024l58.956115-205.504402a58.124114 58.124114 0 0 1 51.980102-40.396079H451.886363c16.254032-0.800002 30.078059 11.744023 30.87806 27.998055a29.332057 29.332057 0 0 1-2.080004 12.400024l-58.972115 205.488402a58.060113 58.060113 0 0 1-51.980102 40.412079z" fill="#FFFFFF" p-id="28165"></path><path d="M369.716202 687.155342H62.571602a61.986121 61.986121 0 0 1-50.268098-23.998047 64.488126 64.488126 0 0 1-9.328018-57.212112l58.940115-205.520401c11.072022-36.766072 44.380087-62.348122 82.746162-63.580124h307.176599a61.940121 61.940121 0 0 1 50.268099 23.998047 64.514126 64.514126 0 0 1 9.312018 57.180111l-58.940115 205.536402c-11.056022 36.782072-44.366087 62.380122-82.762162 63.596124zM64.651606 623.063217l305.064596 0.096a26.774052 26.774052 0 0 0 21.230042-17.230034l58.780114-204.9924-305.066595-0.096a26.808052 26.808052 0 0 0-21.214042 17.230034L64.651606 623.063217z" fill="" p-id="28166"></path><path d="M879.309197 655.15728H572.132597c-16.254032 0.800002-30.078059-11.744023-30.87806-27.998055a29.332057 29.332057 0 0 1 2.080004-12.400024l58.924115-205.504402a58.100113 58.100113 0 0 1 52.028102-40.412079h307.1766c16.254032-0.800002 30.078059 11.744023 30.87806 27.998055a29.332057 29.332057 0 0 1-2.080004 12.400024l-58.972115 205.504402a58.060113 58.060113 0 0 1-51.980102 40.412079z" fill="#FFFFFF" p-id="28167"></path><path d="M879.309197 687.155342H572.132597a62.020121 62.020121 0 0 1-50.284098-23.998047 64.416126 64.416126 0 0 1-9.312018-57.180111l58.940115-205.504402c11.056022-36.798072 44.396087-62.428122 82.810162-63.628124h307.1766a61.944121 61.944121 0 0 1 50.268098 23.998047 64.514126 64.514126 0 0 1 9.312018 57.180111l-58.988115 205.552402c-11.056022 36.782072-44.366087 62.364122-82.746162 63.580124z m-305.016595-64.092125l305.064595 0.096a26.786052 26.786052 0 0 0 21.214042-17.214034l58.796115-204.9924-305.080596-0.112a26.808052 26.808052 0 0 0-21.214042 17.230034l-58.780114 204.9924z" fill="" p-id="28168"></path><path d="M672.796794 543.997062H343.22215c-17.678035 0-31.998062-14.318028-31.998062-31.998062S325.542116 480.000938 343.22215 480.000938h329.574644c17.678035 0 31.998062 14.318028 31.998063 31.998062s-14.320028 31.998062-31.998063 31.998062z" fill="#E21B1B" p-id="28169"></path></svg>