<svg viewBox="0 0 1024 1024" xmlns="http://www.w3.org/2000/svg"><path d="M0 0m136.533333 0l750.933334 0q136.533333 0 136.533333 136.533333l0 750.933334q0 136.533333-136.533333 136.533333l-750.933334 0q-136.533333 0-136.533333-136.533333l0-750.933334q0-136.533333 136.533333-136.533333Z" fill="#96BE4F" p-id="2433"></path><path d="M289.28 382.293333l-45.397333 376.32L592.042667 819.2l25.941333-534.186667-328.704 97.28z" fill="#FFFFFF" p-id="2434"></path><path d="M617.984 285.013333l43.178667 47.616h51.882666l67.072 447.658667L592.042667 819.2l25.941333-534.186667z" fill="#F4F4F4" p-id="2435"></path><path d="M445.098667 461.824a70.826667 70.826667 0 0 1-20.138667-2.901333 83.114667 83.114667 0 0 1-53.76-58.538667 162.304 162.304 0 0 1 1.365333-93.866667c20.992-70.485333 76.970667-113.834667 127.317334-98.816a83.114667 83.114667 0 0 1 53.76 58.538667 162.474667 162.474667 0 0 1-1.365334 93.866667 162.474667 162.474667 0 0 1-51.2 79.189333 90.282667 90.282667 0 0 1-55.978666 22.528z m34.133333-224.938667c-29.696 0-62.976 33.109333-76.629333 78.848a130.048 130.048 0 0 0-1.365334 75.093334 52.394667 52.394667 0 0 0 32.426667 37.376 52.565333 52.565333 0 0 0 47.616-13.653334 130.218667 130.218667 0 0 0 39.936-63.658666 130.218667 130.218667 0 0 0 1.536-75.093334A52.394667 52.394667 0 0 0 490.496 238.933333a38.4 38.4 0 0 0-10.922667-2.048z" fill="#FFFFFF" p-id="2436"></path><path d="M494.933333 482.304a70.826667 70.826667 0 0 1-20.138666-2.901333c-51.2-15.018667-73.557333-81.92-52.565334-152.405334a162.304 162.304 0 0 1 51.2-79.189333 83.114667 83.114667 0 0 1 77.141334-19.626667 83.114667 83.114667 0 0 1 53.76 58.538667 162.304 162.304 0 0 1-1.365334 93.866667 162.645333 162.645333 0 0 1-50.176 79.189333A90.282667 90.282667 0 0 1 494.933333 482.304z m34.133334-224.938667a59.221333 59.221333 0 0 0-36.693334 15.189334 130.048 130.048 0 0 0-39.936 63.658666c-15.36 51.2-1.194667 102.4 30.890667 112.469334a52.394667 52.394667 0 0 0 47.616-13.653334 130.218667 130.218667 0 0 0 39.936-63.658666 130.218667 130.218667 0 0 0 1.536-75.093334 52.394667 52.394667 0 0 0-32.426667-37.376 38.4 38.4 0 0 0-10.922666-1.706666z" fill="#FFFFFF" p-id="2437"></path><path d="M401.578667 732.842667a109.397333 109.397333 0 0 1-58.538667-18.944L322.56 699.733333l17.066667-53.418666s51.2 43.178667 72.533333 13.994666c14.506667-19.456-3.584-34.133333-17.066667-47.104-46.250667-44.544-54.613333-82.944-28.330666-128.682666a117.930667 117.930667 0 0 1 126.634666-52.394667l24.917334 5.973333-19.968 66.730667s-34.133333-7.509333-42.666667-8.362667a32.938667 32.938667 0 0 0-38.912 19.626667c-6.144 17.066667 6.144 26.112 17.066667 35.328 32.768 26.282667 66.048 52.224 60.074666 102.4-5.802667 53.077333-38.570667 81.408-92.330666 79.018667z" fill="#96BE4F" p-id="2438"></path></svg>