<svg viewBox="0 0 1024 1024" xmlns="http://www.w3.org/2000/svg"><path d="M404.6 394.8l-106.9-168c-11.8-18.5-31.5-19-44.1-0.9l-114 163.4c-12.6 18-13.2 47.7-1.4 66.3l106.8 168c11.8 18.5 31.6 19 44.1 0.9L403 461.1c12.8-18 13.3-47.7 1.6-66.3z m472.5 10l-106.9-168c-11.8-18.5-31.6-19-44.1-0.9l-114 163.2c-12.6 18-13.2 47.7-1.4 66.3l106.9 168c11.8 18.5 31.6 19 44.1 0.9L875.8 471c12.4-18 13.1-47.6 1.3-66.2z m0 0" fill="#FEAE30" p-id="2903"></path><path d="M887.9 781.7c-4.5 31.8-26.4 57.8-55.7 69.1-66 23.2-190 37.9-333.8 36.2-140.5-1.8-261.3-18.8-326.9-42.6-29.9-12.1-51.7-39.7-55-72.6 0.1 0.6-0.2 1.3-0.1 1.9L62.8 303c0.3-0.2 0.7 0.2 0.8-0.9 0.3-16.3 14.1-29.3 30.6-28.8 6.3 0 11.9 2.7 16.7 6.2l200.9 186.4L478.9 152c7.3-12.9 21.4-21.6 37.5-21.1 15.1 0.3 27.7 8.9 34.8 20.8l154.6 322.4 204.6-174.5c0.1 0.1-0.3 1-0.1 0.6 5.4-5 12.9-8 21-7.9 16.5 0.4 29.6 13.8 29.3 30.1-0.1 0.8 0.3 0.4 0.7 0.7l-73.1 465.1c-0.1-2.1-0.6-4-0.3-6.5z m0 0" fill="#FED530" p-id="2904"></path><path d="M511.5 439.7c-91.4-1.8-167.1 70.5-168.9 162-1.8 91.4 70.7 166.9 162 168.9 91.4 1.8 166.9-70.7 168.9-162 1.8-91.4-70.7-166.9-162-168.9z m13.7 273.6c-14.7-0.3-26.4-12.5-26.1-27.2l-0.5-117-19.1 4.5c-3 0.7-6.6 1.4-9.5 1.3-12.6-0.2-23.3-10.9-23-23.5 0.1-10.9 7.3-19.8 18.3-22.8l34.9-9.4c10.2-2.6 17.9-4.2 25.3-4h0.7c14.7 0.3 26.4 12.5 26.1 27.2l0.1 144.9c-0.3 14.6-12.5 26.3-27.2 26z" fill="#FEAE30" p-id="2905"></path></svg>