<svg viewBox="0 0 1024 1024" xmlns="http://www.w3.org/2000/svg"><path d="M192.8224 704h96.16A31.584 31.584 0 0 0 320.8224 672c0-17.152-14.272-32-31.84-32H32.6944a31.584 31.584 0 0 0-31.84 32c0 17.152 14.272 32 31.84 32h96.16v288.576c0 16.832 14.336 31.424 32 31.424 17.152 0 32-14.08 32-31.424V704z m778.112-200.64a32 32 0 1 0 43.744-46.688l-478.016-448A32 32 0 0 0 492.9824 8.576l-481.984 448a32 32 0 1 0 43.552 46.88L514.6784 75.776 970.9024 503.36zM512.8224 1024c-88.352 0-160-85.952-160-192s71.648-192 160-192 160 85.952 160 192-71.648 192-160 192z m0-64c50.176 0 96-54.976 96-128s-45.824-128-96-128-96 54.976-96 128 45.824 128 96 128zM768.8224 640a32 32 0 0 1 32 32v320a32 32 0 0 1-64 0V672a32 32 0 0 1 32-32z" fill="#515151" p-id="21435"></path><path d="M736.8224 672.096v159.808c0 17.408 14.304 32.096 31.936 32.096h143.904a112.032 112.032 0 1 0 0-224h-143.904A31.776 31.776 0 0 0 736.8224 672.096zM800.8224 704h112c26.528 0 48 21.312 48 48 0 26.496-20.928 48-48 48H800.8224v-96z" fill="#515151" p-id="21436"></path></svg>