<svg viewBox="0 0 1024 1024" xmlns="http://www.w3.org/2000/svg"><path d="M893.023256 588.54485c0-207.521595-166.697674-374.219269-374.219269-374.219269v350.405316l336.797342 190.511628c23.813953-51.0299 37.421927-105.461794 37.421927-166.697675z" fill="#95CAFB" p-id="12735"></path><path d="M552.82392 329.993355v268.757476c0 20.41196-13.607973 34.019934-34.019933 34.019933-17.009967 0-34.019934-13.607973-34.019934-34.019933V329.993355c0-17.009967 13.607973-34.019934 34.019934-34.019933 17.009967 0 34.019934 13.607973 34.019933 34.019933z" fill="#2587E3" p-id="12736"></path><path d="M535.813953 568.13289l210.923589 122.471761c17.009967 10.20598 20.41196 30.61794 13.607973 47.627907-10.20598 17.009967-30.61794 20.41196-47.627907 13.607974l-210.923588-122.471761c-17.009967-10.20598-20.41196-30.61794-13.607973-47.627907 13.607973-17.009967 34.019934-23.813953 47.627906-13.607974zM641.275748 68.039867h-244.943522c-17.009967 0-34.019934-13.607973-34.019934-34.019933 0-17.009967 13.607973-34.019934 34.019934-34.019934h244.943522c20.41196 0 34.019934 13.607973 34.019933 34.019934s-17.009967 34.019934-34.019933 34.019933zM947.45515 210.923588L855.601329 306.179402c-13.607973 13.607973-34.019934 13.607973-47.627907 0-13.607973-13.607973-13.607973-34.019934 0-47.627907l95.255814-95.255814c13.607973-13.607973 34.019934-13.607973 47.627907 0 10.20598 13.607973 10.20598 34.019934-3.401993 47.627907z" fill="#2587E3" p-id="12737"></path><path d="M518.803987 221.129568c204.119601 0 367.415282 166.697674 367.415282 367.415282s-166.697674 367.415282-367.415282 367.415283S147.986711 792.664452 147.986711 588.54485 314.684385 221.129568 518.803987 221.129568m0-68.039867c-241.541528 0-435.45515 193.913621-435.45515 435.455149s193.913621 435.45515 435.45515 435.45515c241.541528 0 435.45515-193.913621 435.455149-435.45515S760.345515 153.089701 518.803987 153.089701z" fill="#2587E3" p-id="12738"></path></svg>